<svg width="39" height="78" viewBox="0 0 39 78" fill="none" xmlns="http://www.w3.org/2000/svg">
<path d="M36.4437 2.04817C36.9806 2.69319 37.4066 3.45936 37.6972 4.30281C37.9879 5.14626 38.1375 6.05043 38.1375 6.96357C38.1375 7.87671 37.9879 8.78088 37.6972 9.62433C37.4066 10.4678 36.9806 11.234 36.4437 11.879L13.972 38.9311L36.4437 65.9833C37.5266 67.2869 38.135 69.055 38.135 70.8987C38.135 72.7423 37.5266 74.5104 36.4437 75.8141C35.3608 77.1177 33.8921 77.8501 32.3606 77.8501C30.8291 77.8501 29.3604 77.1177 28.2775 75.8141L1.69371 43.8117C1.1568 43.1666 0.730839 42.4005 0.440204 41.557C0.14957 40.7136 -2.43854e-05 39.8094 -2.43854e-05 38.8963C-2.43854e-05 37.9831 0.14957 37.0789 0.440204 36.2355C0.730839 35.392 1.1568 34.6259 1.69371 33.9809L28.2775 1.97845C30.4783 -0.67099 34.185 -0.670989 36.4437 2.04817Z" fill="white"/>
</svg>
