<svg width="39" height="78" viewBox="0 0 39 78" fill="none" xmlns="http://www.w3.org/2000/svg">
<path d="M1.69374 2.04817C1.15683 2.69319 0.730869 3.45936 0.440234 4.30281C0.1496 5.14626 0 6.05043 0 6.96357C0 7.87671 0.1496 8.78088 0.440234 9.62433C0.730869 10.4678 1.15683 11.234 1.69374 11.879L24.1654 38.9311L1.69374 65.9833C0.610827 67.2869 0.00245237 69.055 0.00245237 70.8987C0.00245237 72.7423 0.610827 74.5104 1.69374 75.8141C2.77665 77.1177 4.2454 77.8501 5.77686 77.8501C7.30833 77.8501 8.77708 77.1177 9.85999 75.8141L36.4437 43.8117C36.9806 43.1666 37.4066 42.4005 37.6972 41.557C37.9879 40.7136 38.1375 39.8094 38.1375 38.8963C38.1375 37.9831 37.9879 37.0789 37.6972 36.2355C37.4066 35.392 36.9806 34.6259 36.4437 33.9809L9.85999 1.97845C7.65916 -0.67099 3.95249 -0.670989 1.69374 2.04817Z" fill="white"/>
</svg>
